<mxfile host="app.diagrams.net" agent="Mozilla/5.0 (Windows NT 10.0; Win64; x64) AppleWebKit/537.36 (KHTML, like Gecko) Chrome/133.0.0.0 Safari/537.36" version="26.0.16">
  <diagram name="Página-1" id="K7Wull6o4n6hLo7Ys3QJ">
    <mxGraphModel dx="1707" dy="468" grid="1" gridSize="10" guides="1" tooltips="1" connect="1" arrows="1" fold="1" page="1" pageScale="1" pageWidth="827" pageHeight="1169" math="0" shadow="0">
      <root>
        <mxCell id="0" />
        <mxCell id="1" parent="0" />
        <mxCell id="taE81mQ46KyNj3JrBvwn-3" value="" style="edgeStyle=orthogonalEdgeStyle;rounded=0;orthogonalLoop=1;jettySize=auto;html=1;" edge="1" parent="1" source="taE81mQ46KyNj3JrBvwn-1" target="taE81mQ46KyNj3JrBvwn-2">
          <mxGeometry relative="1" as="geometry" />
        </mxCell>
        <mxCell id="taE81mQ46KyNj3JrBvwn-1" value="INICIO" style="ellipse;whiteSpace=wrap;html=1;aspect=fixed;" vertex="1" parent="1">
          <mxGeometry x="-20" y="10" width="80" height="80" as="geometry" />
        </mxCell>
        <mxCell id="taE81mQ46KyNj3JrBvwn-5" value="" style="edgeStyle=orthogonalEdgeStyle;rounded=0;orthogonalLoop=1;jettySize=auto;html=1;" edge="1" parent="1" source="taE81mQ46KyNj3JrBvwn-2" target="taE81mQ46KyNj3JrBvwn-4">
          <mxGeometry relative="1" as="geometry" />
        </mxCell>
        <mxCell id="taE81mQ46KyNj3JrBvwn-2" value="Me levanto a las 6:30am, me desacaloro" style="whiteSpace=wrap;html=1;" vertex="1" parent="1">
          <mxGeometry x="110" y="20" width="120" height="60" as="geometry" />
        </mxCell>
        <mxCell id="taE81mQ46KyNj3JrBvwn-7" value="" style="edgeStyle=orthogonalEdgeStyle;rounded=0;orthogonalLoop=1;jettySize=auto;html=1;" edge="1" parent="1" source="taE81mQ46KyNj3JrBvwn-4" target="taE81mQ46KyNj3JrBvwn-6">
          <mxGeometry relative="1" as="geometry" />
        </mxCell>
        <mxCell id="taE81mQ46KyNj3JrBvwn-4" value="Voy al baño, me ducho" style="whiteSpace=wrap;html=1;" vertex="1" parent="1">
          <mxGeometry x="294" y="20" width="120" height="60" as="geometry" />
        </mxCell>
        <mxCell id="taE81mQ46KyNj3JrBvwn-9" value="" style="edgeStyle=orthogonalEdgeStyle;rounded=0;orthogonalLoop=1;jettySize=auto;html=1;" edge="1" parent="1" source="taE81mQ46KyNj3JrBvwn-6" target="taE81mQ46KyNj3JrBvwn-8">
          <mxGeometry relative="1" as="geometry" />
        </mxCell>
        <mxCell id="taE81mQ46KyNj3JrBvwn-6" value="Salgo del baño, me seco&amp;nbsp;" style="whiteSpace=wrap;html=1;" vertex="1" parent="1">
          <mxGeometry x="494" y="20" width="120" height="60" as="geometry" />
        </mxCell>
        <mxCell id="taE81mQ46KyNj3JrBvwn-11" value="" style="edgeStyle=orthogonalEdgeStyle;rounded=0;orthogonalLoop=1;jettySize=auto;html=1;" edge="1" parent="1" source="taE81mQ46KyNj3JrBvwn-8" target="taE81mQ46KyNj3JrBvwn-10">
          <mxGeometry relative="1" as="geometry" />
        </mxCell>
        <mxCell id="taE81mQ46KyNj3JrBvwn-16" value="SI" style="edgeLabel;html=1;align=center;verticalAlign=middle;resizable=0;points=[];" vertex="1" connectable="0" parent="taE81mQ46KyNj3JrBvwn-11">
          <mxGeometry x="-0.1667" y="-2" relative="1" as="geometry">
            <mxPoint as="offset" />
          </mxGeometry>
        </mxCell>
        <mxCell id="taE81mQ46KyNj3JrBvwn-8" value="Ya me seque" style="rhombus;whiteSpace=wrap;html=1;" vertex="1" parent="1">
          <mxGeometry x="514" y="150" width="80" height="80" as="geometry" />
        </mxCell>
        <mxCell id="taE81mQ46KyNj3JrBvwn-18" value="" style="edgeStyle=orthogonalEdgeStyle;rounded=0;orthogonalLoop=1;jettySize=auto;html=1;" edge="1" parent="1" source="taE81mQ46KyNj3JrBvwn-10" target="taE81mQ46KyNj3JrBvwn-17">
          <mxGeometry relative="1" as="geometry" />
        </mxCell>
        <mxCell id="taE81mQ46KyNj3JrBvwn-10" value="Cepillarme los dientes" style="whiteSpace=wrap;html=1;" vertex="1" parent="1">
          <mxGeometry x="494" y="290" width="120" height="60" as="geometry" />
        </mxCell>
        <mxCell id="taE81mQ46KyNj3JrBvwn-13" style="edgeStyle=orthogonalEdgeStyle;rounded=0;orthogonalLoop=1;jettySize=auto;html=1;entryX=1;entryY=0.65;entryDx=0;entryDy=0;entryPerimeter=0;" edge="1" parent="1" source="taE81mQ46KyNj3JrBvwn-8" target="taE81mQ46KyNj3JrBvwn-6">
          <mxGeometry relative="1" as="geometry" />
        </mxCell>
        <mxCell id="taE81mQ46KyNj3JrBvwn-14" value="NO" style="edgeLabel;html=1;align=center;verticalAlign=middle;resizable=0;points=[];" vertex="1" connectable="0" parent="taE81mQ46KyNj3JrBvwn-13">
          <mxGeometry x="0.1309" y="1" relative="1" as="geometry">
            <mxPoint as="offset" />
          </mxGeometry>
        </mxCell>
        <mxCell id="taE81mQ46KyNj3JrBvwn-20" value="" style="edgeStyle=orthogonalEdgeStyle;rounded=0;orthogonalLoop=1;jettySize=auto;html=1;" edge="1" parent="1" source="taE81mQ46KyNj3JrBvwn-17" target="taE81mQ46KyNj3JrBvwn-19">
          <mxGeometry relative="1" as="geometry" />
        </mxCell>
        <mxCell id="taE81mQ46KyNj3JrBvwn-17" value="Me visto y me peino" style="whiteSpace=wrap;html=1;" vertex="1" parent="1">
          <mxGeometry x="494" y="410" width="120" height="60" as="geometry" />
        </mxCell>
        <mxCell id="taE81mQ46KyNj3JrBvwn-22" value="" style="edgeStyle=orthogonalEdgeStyle;rounded=0;orthogonalLoop=1;jettySize=auto;html=1;" edge="1" parent="1" source="taE81mQ46KyNj3JrBvwn-19" target="taE81mQ46KyNj3JrBvwn-21">
          <mxGeometry relative="1" as="geometry" />
        </mxCell>
        <mxCell id="taE81mQ46KyNj3JrBvwn-19" value="Salgo de mi cuarto" style="whiteSpace=wrap;html=1;" vertex="1" parent="1">
          <mxGeometry x="494" y="530" width="120" height="60" as="geometry" />
        </mxCell>
        <mxCell id="taE81mQ46KyNj3JrBvwn-24" value="" style="edgeStyle=orthogonalEdgeStyle;rounded=0;orthogonalLoop=1;jettySize=auto;html=1;" edge="1" parent="1" source="taE81mQ46KyNj3JrBvwn-21" target="taE81mQ46KyNj3JrBvwn-23">
          <mxGeometry relative="1" as="geometry" />
        </mxCell>
        <mxCell id="taE81mQ46KyNj3JrBvwn-21" value="Desayuno" style="whiteSpace=wrap;html=1;" vertex="1" parent="1">
          <mxGeometry x="494" y="640" width="120" height="60" as="geometry" />
        </mxCell>
        <mxCell id="taE81mQ46KyNj3JrBvwn-26" value="" style="edgeStyle=orthogonalEdgeStyle;rounded=0;orthogonalLoop=1;jettySize=auto;html=1;" edge="1" parent="1" source="taE81mQ46KyNj3JrBvwn-23" target="taE81mQ46KyNj3JrBvwn-25">
          <mxGeometry relative="1" as="geometry" />
        </mxCell>
        <mxCell id="taE81mQ46KyNj3JrBvwn-23" value="Me paro de la mesa" style="whiteSpace=wrap;html=1;" vertex="1" parent="1">
          <mxGeometry x="494" y="750" width="120" height="60" as="geometry" />
        </mxCell>
        <mxCell id="taE81mQ46KyNj3JrBvwn-28" value="" style="edgeStyle=orthogonalEdgeStyle;rounded=0;orthogonalLoop=1;jettySize=auto;html=1;" edge="1" parent="1" source="taE81mQ46KyNj3JrBvwn-25" target="taE81mQ46KyNj3JrBvwn-27">
          <mxGeometry relative="1" as="geometry" />
        </mxCell>
        <mxCell id="taE81mQ46KyNj3JrBvwn-25" value="Lavo el plato" style="whiteSpace=wrap;html=1;" vertex="1" parent="1">
          <mxGeometry x="494" y="860" width="120" height="60" as="geometry" />
        </mxCell>
        <mxCell id="taE81mQ46KyNj3JrBvwn-30" value="" style="edgeStyle=orthogonalEdgeStyle;rounded=0;orthogonalLoop=1;jettySize=auto;html=1;" edge="1" parent="1" source="taE81mQ46KyNj3JrBvwn-27" target="taE81mQ46KyNj3JrBvwn-29">
          <mxGeometry relative="1" as="geometry" />
        </mxCell>
        <mxCell id="taE81mQ46KyNj3JrBvwn-27" value="Voy a mi cuarto por el maletin" style="whiteSpace=wrap;html=1;" vertex="1" parent="1">
          <mxGeometry x="294" y="860" width="120" height="60" as="geometry" />
        </mxCell>
        <mxCell id="taE81mQ46KyNj3JrBvwn-32" value="" style="edgeStyle=orthogonalEdgeStyle;rounded=0;orthogonalLoop=1;jettySize=auto;html=1;" edge="1" parent="1" source="taE81mQ46KyNj3JrBvwn-29" target="taE81mQ46KyNj3JrBvwn-31">
          <mxGeometry relative="1" as="geometry" />
        </mxCell>
        <mxCell id="taE81mQ46KyNj3JrBvwn-29" value="Salgo al trabajo y enciendo la moto" style="whiteSpace=wrap;html=1;" vertex="1" parent="1">
          <mxGeometry x="94" y="860" width="120" height="60" as="geometry" />
        </mxCell>
        <mxCell id="taE81mQ46KyNj3JrBvwn-34" value="" style="edgeStyle=orthogonalEdgeStyle;rounded=0;orthogonalLoop=1;jettySize=auto;html=1;" edge="1" parent="1" source="taE81mQ46KyNj3JrBvwn-31" target="taE81mQ46KyNj3JrBvwn-33">
          <mxGeometry relative="1" as="geometry" />
        </mxCell>
        <mxCell id="taE81mQ46KyNj3JrBvwn-31" value="Llego al trabajo" style="whiteSpace=wrap;html=1;" vertex="1" parent="1">
          <mxGeometry x="94" y="960" width="120" height="60" as="geometry" />
        </mxCell>
        <mxCell id="taE81mQ46KyNj3JrBvwn-36" value="" style="edgeStyle=orthogonalEdgeStyle;rounded=0;orthogonalLoop=1;jettySize=auto;html=1;" edge="1" parent="1" source="taE81mQ46KyNj3JrBvwn-33" target="taE81mQ46KyNj3JrBvwn-35">
          <mxGeometry relative="1" as="geometry" />
        </mxCell>
        <mxCell id="taE81mQ46KyNj3JrBvwn-33" value="Empiezo a ver mi lista de pendientes" style="whiteSpace=wrap;html=1;" vertex="1" parent="1">
          <mxGeometry x="94" y="1070" width="120" height="60" as="geometry" />
        </mxCell>
        <mxCell id="taE81mQ46KyNj3JrBvwn-38" value="" style="edgeStyle=orthogonalEdgeStyle;rounded=0;orthogonalLoop=1;jettySize=auto;html=1;" edge="1" parent="1" source="taE81mQ46KyNj3JrBvwn-35" target="taE81mQ46KyNj3JrBvwn-37">
          <mxGeometry relative="1" as="geometry" />
        </mxCell>
        <mxCell id="taE81mQ46KyNj3JrBvwn-35" value="Enciendo el computador" style="whiteSpace=wrap;html=1;" vertex="1" parent="1">
          <mxGeometry x="94" y="1210" width="120" height="60" as="geometry" />
        </mxCell>
        <mxCell id="taE81mQ46KyNj3JrBvwn-40" value="" style="edgeStyle=orthogonalEdgeStyle;rounded=0;orthogonalLoop=1;jettySize=auto;html=1;" edge="1" parent="1" source="taE81mQ46KyNj3JrBvwn-37" target="taE81mQ46KyNj3JrBvwn-39">
          <mxGeometry relative="1" as="geometry" />
        </mxCell>
        <mxCell id="taE81mQ46KyNj3JrBvwn-37" value="Inicio a laborar según mis pendientes" style="whiteSpace=wrap;html=1;" vertex="1" parent="1">
          <mxGeometry x="94" y="1330" width="120" height="60" as="geometry" />
        </mxCell>
        <mxCell id="taE81mQ46KyNj3JrBvwn-42" value="" style="edgeStyle=orthogonalEdgeStyle;rounded=0;orthogonalLoop=1;jettySize=auto;html=1;" edge="1" parent="1" source="taE81mQ46KyNj3JrBvwn-39" target="taE81mQ46KyNj3JrBvwn-41">
          <mxGeometry relative="1" as="geometry" />
        </mxCell>
        <mxCell id="taE81mQ46KyNj3JrBvwn-39" value="A las 12:30pm salgo almorzar" style="whiteSpace=wrap;html=1;" vertex="1" parent="1">
          <mxGeometry x="270" y="1330" width="120" height="60" as="geometry" />
        </mxCell>
        <mxCell id="taE81mQ46KyNj3JrBvwn-44" value="" style="edgeStyle=orthogonalEdgeStyle;rounded=0;orthogonalLoop=1;jettySize=auto;html=1;" edge="1" parent="1" source="taE81mQ46KyNj3JrBvwn-41" target="taE81mQ46KyNj3JrBvwn-43">
          <mxGeometry relative="1" as="geometry" />
        </mxCell>
        <mxCell id="taE81mQ46KyNj3JrBvwn-41" value="Entro a la 1:30pm de nuevo a laborar" style="whiteSpace=wrap;html=1;" vertex="1" parent="1">
          <mxGeometry x="450" y="1330" width="120" height="60" as="geometry" />
        </mxCell>
        <mxCell id="taE81mQ46KyNj3JrBvwn-46" value="" style="edgeStyle=orthogonalEdgeStyle;rounded=0;orthogonalLoop=1;jettySize=auto;html=1;" edge="1" parent="1" source="taE81mQ46KyNj3JrBvwn-43" target="taE81mQ46KyNj3JrBvwn-45">
          <mxGeometry relative="1" as="geometry" />
        </mxCell>
        <mxCell id="taE81mQ46KyNj3JrBvwn-43" value="A las 4pm me doy un descanso y como algo" style="whiteSpace=wrap;html=1;" vertex="1" parent="1">
          <mxGeometry x="650" y="1330" width="120" height="60" as="geometry" />
        </mxCell>
        <mxCell id="taE81mQ46KyNj3JrBvwn-48" value="" style="edgeStyle=orthogonalEdgeStyle;rounded=0;orthogonalLoop=1;jettySize=auto;html=1;" edge="1" parent="1" source="taE81mQ46KyNj3JrBvwn-45" target="taE81mQ46KyNj3JrBvwn-47">
          <mxGeometry relative="1" as="geometry" />
        </mxCell>
        <mxCell id="taE81mQ46KyNj3JrBvwn-45" value="A las 5:10pm salgo de la empresa" style="whiteSpace=wrap;html=1;" vertex="1" parent="1">
          <mxGeometry x="650" y="1440" width="120" height="60" as="geometry" />
        </mxCell>
        <mxCell id="taE81mQ46KyNj3JrBvwn-50" value="" style="edgeStyle=orthogonalEdgeStyle;rounded=0;orthogonalLoop=1;jettySize=auto;html=1;" edge="1" parent="1" source="taE81mQ46KyNj3JrBvwn-47" target="taE81mQ46KyNj3JrBvwn-49">
          <mxGeometry relative="1" as="geometry" />
        </mxCell>
        <mxCell id="taE81mQ46KyNj3JrBvwn-47" value="Llego a estudiar" style="whiteSpace=wrap;html=1;" vertex="1" parent="1">
          <mxGeometry x="650" y="1560" width="120" height="60" as="geometry" />
        </mxCell>
        <mxCell id="taE81mQ46KyNj3JrBvwn-52" value="" style="edgeStyle=orthogonalEdgeStyle;rounded=0;orthogonalLoop=1;jettySize=auto;html=1;" edge="1" parent="1" source="taE81mQ46KyNj3JrBvwn-49" target="taE81mQ46KyNj3JrBvwn-51">
          <mxGeometry relative="1" as="geometry" />
        </mxCell>
        <mxCell id="taE81mQ46KyNj3JrBvwn-49" value="Salgo de estudiar, llego a la casa" style="whiteSpace=wrap;html=1;" vertex="1" parent="1">
          <mxGeometry x="650" y="1680" width="120" height="60" as="geometry" />
        </mxCell>
        <mxCell id="taE81mQ46KyNj3JrBvwn-54" value="" style="edgeStyle=orthogonalEdgeStyle;rounded=0;orthogonalLoop=1;jettySize=auto;html=1;" edge="1" parent="1" source="taE81mQ46KyNj3JrBvwn-51" target="taE81mQ46KyNj3JrBvwn-53">
          <mxGeometry relative="1" as="geometry" />
        </mxCell>
        <mxCell id="taE81mQ46KyNj3JrBvwn-51" value="Abro la puerta" style="whiteSpace=wrap;html=1;" vertex="1" parent="1">
          <mxGeometry x="650" y="1790" width="120" height="60" as="geometry" />
        </mxCell>
        <mxCell id="taE81mQ46KyNj3JrBvwn-56" value="" style="edgeStyle=orthogonalEdgeStyle;rounded=0;orthogonalLoop=1;jettySize=auto;html=1;" edge="1" parent="1" source="taE81mQ46KyNj3JrBvwn-53" target="taE81mQ46KyNj3JrBvwn-55">
          <mxGeometry relative="1" as="geometry" />
        </mxCell>
        <mxCell id="taE81mQ46KyNj3JrBvwn-53" value="Entro la moto" style="whiteSpace=wrap;html=1;" vertex="1" parent="1">
          <mxGeometry x="650" y="1900" width="120" height="60" as="geometry" />
        </mxCell>
        <mxCell id="taE81mQ46KyNj3JrBvwn-58" value="" style="edgeStyle=orthogonalEdgeStyle;rounded=0;orthogonalLoop=1;jettySize=auto;html=1;" edge="1" parent="1" source="taE81mQ46KyNj3JrBvwn-55" target="taE81mQ46KyNj3JrBvwn-57">
          <mxGeometry relative="1" as="geometry" />
        </mxCell>
        <mxCell id="taE81mQ46KyNj3JrBvwn-55" value="Cierro la puerta" style="whiteSpace=wrap;html=1;" vertex="1" parent="1">
          <mxGeometry x="450" y="1900" width="120" height="60" as="geometry" />
        </mxCell>
        <mxCell id="taE81mQ46KyNj3JrBvwn-60" value="" style="edgeStyle=orthogonalEdgeStyle;rounded=0;orthogonalLoop=1;jettySize=auto;html=1;" edge="1" parent="1" source="taE81mQ46KyNj3JrBvwn-57" target="taE81mQ46KyNj3JrBvwn-59">
          <mxGeometry relative="1" as="geometry" />
        </mxCell>
        <mxCell id="taE81mQ46KyNj3JrBvwn-57" value="Me dirijo a mi cuarto" style="whiteSpace=wrap;html=1;" vertex="1" parent="1">
          <mxGeometry x="250" y="1900" width="120" height="60" as="geometry" />
        </mxCell>
        <mxCell id="taE81mQ46KyNj3JrBvwn-62" value="" style="edgeStyle=orthogonalEdgeStyle;rounded=0;orthogonalLoop=1;jettySize=auto;html=1;" edge="1" parent="1" source="taE81mQ46KyNj3JrBvwn-59" target="taE81mQ46KyNj3JrBvwn-61">
          <mxGeometry relative="1" as="geometry" />
        </mxCell>
        <mxCell id="taE81mQ46KyNj3JrBvwn-59" value="Me baño" style="whiteSpace=wrap;html=1;" vertex="1" parent="1">
          <mxGeometry x="50" y="1900" width="120" height="60" as="geometry" />
        </mxCell>
        <mxCell id="taE81mQ46KyNj3JrBvwn-64" value="" style="edgeStyle=orthogonalEdgeStyle;rounded=0;orthogonalLoop=1;jettySize=auto;html=1;" edge="1" parent="1" source="taE81mQ46KyNj3JrBvwn-61" target="taE81mQ46KyNj3JrBvwn-63">
          <mxGeometry relative="1" as="geometry" />
        </mxCell>
        <mxCell id="taE81mQ46KyNj3JrBvwn-61" value="Salgo de bañarme, me cepillo los dientes" style="whiteSpace=wrap;html=1;" vertex="1" parent="1">
          <mxGeometry x="50" y="1780" width="120" height="60" as="geometry" />
        </mxCell>
        <mxCell id="taE81mQ46KyNj3JrBvwn-66" value="" style="edgeStyle=orthogonalEdgeStyle;rounded=0;orthogonalLoop=1;jettySize=auto;html=1;" edge="1" parent="1" source="taE81mQ46KyNj3JrBvwn-63" target="taE81mQ46KyNj3JrBvwn-65">
          <mxGeometry relative="1" as="geometry" />
        </mxCell>
        <mxCell id="taE81mQ46KyNj3JrBvwn-63" value="Me pongo la pijama" style="whiteSpace=wrap;html=1;" vertex="1" parent="1">
          <mxGeometry x="50" y="1660" width="120" height="60" as="geometry" />
        </mxCell>
        <mxCell id="taE81mQ46KyNj3JrBvwn-70" value="" style="edgeStyle=orthogonalEdgeStyle;rounded=0;orthogonalLoop=1;jettySize=auto;html=1;" edge="1" parent="1" source="taE81mQ46KyNj3JrBvwn-65" target="taE81mQ46KyNj3JrBvwn-69">
          <mxGeometry relative="1" as="geometry" />
        </mxCell>
        <mxCell id="taE81mQ46KyNj3JrBvwn-65" value="Me acuesto&amp;nbsp;" style="whiteSpace=wrap;html=1;" vertex="1" parent="1">
          <mxGeometry x="50" y="1540" width="120" height="60" as="geometry" />
        </mxCell>
        <mxCell id="taE81mQ46KyNj3JrBvwn-72" value="" style="edgeStyle=orthogonalEdgeStyle;rounded=0;orthogonalLoop=1;jettySize=auto;html=1;" edge="1" parent="1" source="taE81mQ46KyNj3JrBvwn-69" target="taE81mQ46KyNj3JrBvwn-71">
          <mxGeometry relative="1" as="geometry" />
        </mxCell>
        <mxCell id="taE81mQ46KyNj3JrBvwn-69" value="Duermo" style="shape=document;whiteSpace=wrap;html=1;boundedLbl=1;" vertex="1" parent="1">
          <mxGeometry x="250" y="1530" width="110" height="80" as="geometry" />
        </mxCell>
        <mxCell id="taE81mQ46KyNj3JrBvwn-71" value="FIN" style="ellipse;whiteSpace=wrap;html=1;" vertex="1" parent="1">
          <mxGeometry x="265" y="1690" width="80" height="80" as="geometry" />
        </mxCell>
      </root>
    </mxGraphModel>
  </diagram>
</mxfile>
